<svg width="134" height="10" viewBox="0 0 134 10" fill="none" xmlns="http://www.w3.org/2000/svg">
<g clip-path="url(#clip0_4_4)">
<path fill-rule="evenodd" clip-rule="evenodd" d="M16.0079 0.133609C15.5118 0.133609 14.8402 0.203858 14.2093 0.676979C13.5118 1.19214 13.2808 1.90289 13.1499 2.48803C13.0293 3.03194 12.9173 3.79803 13.2663 4.32783C13.5689 4.80121 14.1641 5.01036 14.316 5.05294L18.0718 6.26554C18.9027 6.52925 18.906 6.97549 18.8186 7.36585C18.7439 7.69981 18.5397 8.42519 17.6208 8.42519L11.9613 8.42492L11.6354 9.88765H17.908C18.5787 9.88765 19.2356 9.81794 19.8855 9.19101C20.4236 8.67558 20.6635 7.99225 20.7997 7.37996C20.9019 6.91988 21.0356 6.05613 20.547 5.49865C20.3033 5.21952 19.8827 5.01063 19.2434 4.80148L15.7608 3.67216C14.9993 3.42283 14.9611 3.004 15.0575 2.57212C15.0981 2.39091 15.1898 2.04312 15.4879 1.82013C15.7675 1.61098 16.077 1.59661 16.3394 1.59661H24.7285L22.8841 9.88712H24.8098L26.6544 1.59661H30.6509L30.9768 0.133343H16.0088L16.0079 0.133609ZM48.9867 8.6197C48.7678 9.60932 47.8213 10.0162 47.1644 9.99941C45.9922 9.94965 45.6206 9.00262 45.6206 9.00262L42.8325 2.68495C42.7334 2.47579 42.6805 2.44785 42.652 2.44785C42.5782 2.44785 42.4286 2.53061 42.3855 2.72592L40.7996 9.88898H38.9324L40.8236 1.34621C41.0818 0.508805 41.7949 0.00934175 42.6548 0.0215822C43.8535 0.0338227 44.2473 1.06149 44.2473 1.06149L47.0123 7.32461C47.0636 7.42147 47.0616 7.5609 47.1934 7.5609C47.3538 7.5609 47.3903 7.39353 47.4062 7.32461L48.9984 0.133609H50.8656L48.9865 8.6197H48.9867ZM4.39454 6.11147H8.31776L7.53473 2.13998C7.50687 2.00108 7.46397 1.73604 7.33222 1.73604C7.20074 1.73604 7.04057 2.00108 6.95059 2.13998L4.39426 6.11147H4.39454ZM5.79095 1.12296C6.28094 0.386401 6.69822 0.0862437 7.44058 0.0322261C8.82891 0.00641469 9.1643 1.16127 9.18992 1.32572C9.20079 1.3651 11.0557 9.88739 11.0557 9.88739H9.02836L8.52417 7.42067H3.60928L2.02735 9.88739H0L5.79123 1.12296H5.79095ZM31.4565 6.11147H35.3797L34.5967 2.13998C34.5688 2.00108 34.5259 1.73604 34.3942 1.73604C34.2624 1.73604 34.1025 2.00108 34.0126 2.13998L31.4562 6.11147H31.4565ZM32.8529 1.12296C33.3429 0.386401 33.7593 0.0862437 34.5025 0.0322261C35.8906 0.00641469 36.2263 1.16127 36.2519 1.32572C36.2625 1.3651 38.1177 9.88739 38.1177 9.88739H36.0903L35.5861 7.42067H30.6712L29.0893 9.88739H27.0617L32.8532 1.12296H32.8529ZM53.9013 6.11147H57.8237L57.0407 2.13998C57.0137 2.00108 56.9705 1.73604 56.8382 1.73604C56.707 1.73604 56.5471 2.00108 56.4574 2.13998L53.9013 6.11147ZM55.2978 1.12296C55.7866 0.386401 56.2042 0.0862437 56.9468 0.0322261C58.3352 0.00641469 58.6703 1.16127 58.6964 1.32572C58.7073 1.3651 60.5622 9.88739 60.5622 9.88739H58.5349L58.0301 7.42067H53.1161L51.5342 9.88739H49.5065L55.2978 1.12296Z" fill="white"/>
<path fill-rule="evenodd" clip-rule="evenodd" d="M82.8597 7.70119C83.2932 8.43934 84.2386 8.50933 85.3032 8.50933C86.3529 8.50933 87.3456 8.43934 88.1228 7.70119C88.5479 7.29726 89.0028 6.55937 89.3526 4.98621C89.727 3.30128 89.5708 2.63258 89.334 2.25632C88.8933 1.5469 87.9064 1.46335 86.8718 1.46335C85.8074 1.46335 84.8264 1.54717 84.0709 2.25632C83.572 2.72997 83.1681 3.4958 82.8358 4.98621C82.4834 6.57374 82.6132 7.29752 82.8592 7.70119H82.8597ZM91.0499 1.03121C91.897 2.00539 91.6198 3.70442 91.3357 4.98594C91.0505 6.2672 90.5549 7.96543 89.2889 8.94094C87.9515 9.97153 86.1746 9.97153 84.9935 9.97153C83.7831 9.97153 82.0483 9.97153 81.1555 8.94094C80.2165 7.8542 80.609 6.08545 80.8547 4.98594C81.148 3.66291 81.5842 2.03359 82.9149 1.03121C84.2815 8.29467e-05 85.9729 8.29913e-05 87.2119 8.29913e-05C88.4214 8.29913e-05 90.1555 8.29467e-05 91.0499 1.03121ZM94.5152 9.86137L96.3587 1.57538H92.3792L92.7045 0.11344H102.603L102.277 1.57538H98.2832L96.4397 9.86137H94.5155H94.5152ZM103.781 7.70093C104.214 8.43908 105.161 8.50906 106.225 8.50906C107.275 8.50906 108.267 8.43908 109.044 7.70093C109.469 7.29699 109.924 6.5591 110.274 4.98594C110.649 3.30101 110.492 2.63231 110.255 2.25605C109.815 1.54664 108.828 1.46308 107.793 1.46308C106.729 1.46308 105.749 1.5469 104.992 2.25605C104.493 2.7297 104.09 3.49553 103.758 4.98594C103.405 6.57347 103.535 7.29726 103.781 7.70093H103.781ZM111.971 1.03094C112.818 2.00512 112.542 3.70415 112.257 4.98567C111.972 6.26693 111.477 7.96516 110.211 8.94067C108.874 9.97126 107.096 9.97126 105.915 9.97126C104.705 9.97126 102.97 9.97126 102.077 8.94067C101.138 7.85393 101.531 6.08519 101.776 4.98567C102.07 3.66264 102.506 2.03333 103.837 1.03094C105.203 -0.000183105 106.894 -0.000183105 108.133 -0.000183105C109.343 -0.000183105 111.078 -0.000183105 111.971 1.03094H111.971ZM73.4475 8.80416C73.2628 9.10352 73.094 9.35259 72.8976 9.54285C72.6419 9.79245 72.3394 9.9404 71.894 9.96887C71.0798 9.9529 70.6029 9.40341 70.5324 8.80416L69.3627 2.30049C69.3438 2.18926 69.2736 1.98064 69.1858 1.98064C69.0257 1.98064 68.9705 2.23104 68.9608 2.27228L67.324 9.86216H65.4L67.2766 1.38618C67.2766 1.38618 67.5747 0.049577 69.0939 0.0195081C70.5892 0.114239 70.7675 1.37713 70.7675 1.37713L71.9436 7.75947C71.9851 7.96835 72.0536 8.12136 72.1405 8.12136C72.2283 8.12136 72.3636 7.96835 72.4979 7.75947L76.5768 1.25606C77.1925 0.260592 77.793 0.0402636 78.4415 0.0075337C79.8956 0.107852 80.0204 1.37767 79.8973 1.79517C79.8931 1.82258 78.1114 9.86216 78.1114 9.86216H76.1871L77.9259 2.27228C77.985 2.00778 77.8741 1.98064 77.8153 1.98064C77.7134 1.98064 77.5652 2.18926 77.4964 2.30049L73.4475 8.80416ZM127.605 1.79863C127.885 1.58948 128.194 1.57511 128.456 1.57511H133.675L134 0.113706H128.125C127.63 0.113706 126.958 0.183956 126.329 0.656278C125.63 1.17197 125.4 1.88192 125.269 2.4668C125.149 3.00937 125.037 3.77493 125.386 4.305C125.688 4.77732 126.283 4.98754 126.435 5.02878L130.188 6.24059C131.019 6.50562 131.021 6.95053 130.935 7.34063C130.86 7.67511 130.655 8.39863 129.737 8.39863H121.671C121.239 8.39863 121.185 8.44626 120.94 8.10699L119.239 5.75523L119.255 5.68577H120.566C121.733 5.68577 122.346 5.15598 122.713 4.68232C123.263 3.98275 123.467 3.24221 123.622 2.55115H123.62C123.702 2.02348 123.696 1.48783 123.454 1.0038C123.045 0.154419 122.18 0.113174 121.465 0.113174H116.625C116.246 0.113174 115.752 0.169321 115.314 0.503272C114.823 0.878203 114.7 1.36702 114.611 1.77069L114.438 2.55115L112.819 9.8611H114.744L116.362 2.55115L116.424 2.27175C116.468 2.07564 116.508 1.89576 116.749 1.72838C116.94 1.58895 117.088 1.57458 117.293 1.57458H120.413C120.719 1.57458 121.185 1.57458 121.426 1.86835C121.558 2.02721 121.653 2.2981 121.572 2.82949C121.477 3.185 121.321 3.65253 121.111 3.88935C120.762 4.27919 120.301 4.32123 119.965 4.32123L118.041 4.32096C117.429 4.32096 116.961 4.76668 116.972 5.34544C116.983 5.59424 117.146 5.86911 117.283 6.03383L119.534 9.47313C119.534 9.47313 119.8 9.86137 120.314 9.86137H120.604H122.209H130.025C130.695 9.86137 131.351 9.79191 132.002 9.16499C132.539 8.65009 132.778 7.96702 132.915 7.35447C133.016 6.89492 133.15 6.03197 132.662 5.47503C132.418 5.19642 131.997 4.98754 131.359 4.77759L127.879 3.65067C127.118 3.39947 127.08 2.98143 127.176 2.55062C127.216 2.36941 127.308 2.02135 127.605 1.79863H127.605Z" fill="white"/>
</g>
<defs>
<clipPath id="clip0_4_4">
<rect width="134" height="10" fill="white"/>
</clipPath>
</defs>
</svg>
