<svg width="121" height="19" viewBox="0 0 121 19" fill="none" xmlns="http://www.w3.org/2000/svg">
<path d="M118.605 4.67516V10.036C118.605 10.238 118.452 10.3158 118.314 10.1913L112.465 5.09472C112.066 4.73716 111.774 4.6751 111.16 4.6751H109.625V14.3404H112.02L112.02 8.91729C112.02 8.74627 112.143 8.69972 112.266 8.80839L118.099 13.9052C118.467 14.2315 118.774 14.3404 119.281 14.3404H120.616C120.862 14.3404 121 14.2004 121 13.9518V4.6751H118.605V4.67516ZM102.642 4.67516H99.4029L95.3505 14.3404H97.8986L100.953 6.94382C101.045 6.71074 101.214 6.71074 101.322 6.95934L104.515 14.3404H107.692L103.732 5.32775C103.517 4.83049 103.21 4.67516 102.642 4.67516H102.642ZM81.5668 9.3834C81.5668 12.9573 83.2859 14.3404 87.4921 14.3404H92.9107C93.1563 14.3404 93.2944 14.2004 93.2944 13.9518V8.91735C93.2944 8.66875 93.1563 8.52875 92.9107 8.52875H88.3669V10.4712H90.4085C90.5159 10.4712 90.5926 10.5489 90.5926 10.6576V12.1183C90.5926 12.227 90.5159 12.3048 90.4085 12.3048H87.8451C85.3736 12.3048 84.6675 11.9473 84.6675 9.3834C84.6675 7.05249 85.4043 6.69505 87.7684 6.69505L93.2944 6.69517V4.65946L87.584 4.6751C83.4857 4.6751 81.5668 6.12027 81.5668 9.38334L81.5668 9.3834ZM76.5941 10.036C76.5941 10.2379 76.4404 10.3158 76.3023 10.1913L70.4538 5.09472C70.0548 4.73716 69.7631 4.6751 69.149 4.6751H67.6141V14.3404H70.0088V8.91729C70.0088 8.74627 70.1315 8.69972 70.2544 8.80839L76.0874 13.9052C76.4558 14.2315 76.7629 14.3404 77.2694 14.3404H78.6049C78.8505 14.3404 78.9887 14.2004 78.9887 13.9518V4.6751H76.5941V10.0359V10.036ZM60.6304 4.67516H57.3915L53.3391 14.3404H55.8872L58.9419 6.94371C59.0341 6.71074 59.2027 6.71074 59.3104 6.95934L62.5031 14.3404H65.6805L61.7203 5.32775C61.5053 4.83049 61.1984 4.67516 60.6304 4.67516H60.6304ZM48.4431 8.26458H43.132V4.67516H40.2152V14.3404H43.132V10.3779H48.4431V14.3404H51.3444V4.67516H48.4431V8.26458ZM27.1531 9.41461C27.1531 12.9263 28.8723 14.3404 32.9554 14.3404H37.4224V12.3048H33.3699C31.0059 12.3048 30.2537 11.5277 30.2537 9.41461C30.2537 7.48769 31.0213 6.71074 33.2932 6.71074H37.4224V4.67516H33.0476C29.0564 4.67516 27.1531 6.18245 27.1531 9.41461ZM19.5435 9.63218C19.2869 12.5097 18.6425 14.2845 17.4521 15.3859C16.2801 16.471 14.4247 17.0306 11.6584 17.1311C11.5926 17.1334 11.5484 17.0615 11.5797 17.0036L15.1278 10.4089C15.5455 9.63294 15.7647 8.76343 15.7647 7.87998V2.57146C15.7647 2.51269 15.8211 2.47108 15.8763 2.48877C16.946 2.83587 17.7651 3.3236 18.3402 3.96044C19.4007 5.13451 19.7832 6.93701 19.5435 9.63218ZM10.5741 11.1154C10.009 9.93449 8.28279 6.26155 6.72134 2.31187C6.70148 2.26156 6.73045 2.2052 6.78242 2.19427C7.89718 1.96635 9.21961 1.85116 10.7634 1.85116C12.3073 1.85116 13.6298 1.96635 14.7446 2.19427C14.7965 2.20526 14.8255 2.26156 14.8057 2.31187C13.2444 6.2615 11.518 9.93443 10.9537 11.1154C10.8764 11.277 10.6505 11.277 10.5741 11.1154ZM9.86863 17.1303C7.10086 17.0307 5.24703 16.4702 4.07473 15.386C2.8845 14.2845 2.24006 12.5098 1.98351 9.63223C1.74385 6.93707 2.12627 5.13463 3.18698 3.9605C3.76175 3.32366 4.58117 2.83592 5.6507 2.48882C5.70504 2.47113 5.76229 2.5128 5.76229 2.57151V7.88004C5.76229 8.76348 5.98146 9.633 6.39918 10.409L9.9473 17.0036C9.9794 17.0616 9.93424 17.1334 9.86863 17.1303ZM10.7634 0.980061C2.75933 0.980061 0.609289 3.89709 1.12612 9.71034C1.64219 15.5064 3.73963 18.0191 10.7634 18.0191C17.7872 18.0191 19.8848 15.5064 20.4008 9.71034C20.9178 3.89709 18.7677 0.980061 10.7634 0.980061ZM20.9628 9.69095C20.6667 13.0339 19.9022 15.1123 18.4829 16.4293C16.9535 17.8492 14.5002 18.5101 10.7611 18.5101C7.02283 18.5101 4.56886 17.8492 3.0394 16.4293C1.62007 15.1123 0.855742 13.0339 0.560172 9.69095C0.280858 6.53895 0.74642 4.40798 2.02392 2.98432C3.53114 1.30547 6.29671 0.489384 10.7611 0.489384C15.2262 0.489384 17.9912 1.3063 19.4984 2.98503C20.7757 4.40881 21.2414 6.53978 20.9628 9.69101V9.69095ZM10.7611 0C1.85143 0 -0.489622 3.2834 0.0806178 9.73497C0.652715 16.1982 2.97373 19 10.7611 19C18.5484 19 20.8697 16.1982 21.4416 9.73497C22.012 3.28417 19.6709 0 10.7611 0Z" fill="white"/>
</svg>
